<svg id="Camada_1" data-name="Camada 1" xmlns="http://www.w3.org/2000/svg" xmlns:xlink="http://www.w3.org/1999/xlink" viewBox="0 0 331.42 361.84"><defs><style>.cls-1{fill:url(#Gradiente_sem_nome_95);}.cls-11,.cls-2{fill:none;stroke-miterlimit:10;stroke-width:0.74px;}.cls-2{stroke:#fff;}.cls-3{fill:url(#Gradiente_sem_nome_93);}.cls-4{fill:url(#Gradiente_sem_nome_93-2);}.cls-5{fill:url(#Gradiente_sem_nome_93-3);}.cls-6{fill:url(#Gradiente_sem_nome_93-4);}.cls-7{fill:url(#Gradiente_sem_nome_93-5);}.cls-8{fill:url(#Gradiente_sem_nome_93-6);}.cls-9{fill:url(#Gradiente_sem_nome_93-7);}.cls-10{fill:url(#Gradiente_sem_nome_93-8);}.cls-11{stroke:#000;}</style><linearGradient id="Gradiente_sem_nome_95" x1="48.97" y1="217.38" x2="325.86" y2="217.38" gradientUnits="userSpaceOnUse"><stop offset="0" stop-color="#b4723c"/><stop offset="1" stop-color="#ce7a3c"/></linearGradient><linearGradient id="Gradiente_sem_nome_93" x1="167.37" y1="244.42" x2="225.34" y2="244.42" gradientUnits="userSpaceOnUse"><stop offset="0" stop-color="#6ab4cd"/><stop offset="1" stop-color="#3c8ba0"/></linearGradient><linearGradient id="Gradiente_sem_nome_93-2" x1="295.44" y1="245.7" x2="353.46" y2="245.7" xlink:href="#Gradiente_sem_nome_93"/><linearGradient id="Gradiente_sem_nome_93-3" x1="162.05" y1="170.62" x2="224.57" y2="170.62" xlink:href="#Gradiente_sem_nome_93"/><linearGradient id="Gradiente_sem_nome_93-4" x1="234.12" y1="255.71" x2="286.91" y2="255.71" xlink:href="#Gradiente_sem_nome_93"/><linearGradient id="Gradiente_sem_nome_93-5" x1="326.53" y1="160.9" x2="380.39" y2="160.9" xlink:href="#Gradiente_sem_nome_93"/><linearGradient id="Gradiente_sem_nome_93-6" x1="315.99" y1="208.42" x2="330.37" y2="208.42" xlink:href="#Gradiente_sem_nome_93"/><linearGradient id="Gradiente_sem_nome_93-7" x1="230.26" y1="170.7" x2="289.63" y2="170.7" xlink:href="#Gradiente_sem_nome_93"/><linearGradient id="Gradiente_sem_nome_93-8" x1="295.77" y1="171.16" x2="331.96" y2="171.16" xlink:href="#Gradiente_sem_nome_93"/></defs><title>nerdaqui_ex14</title><path class="cls-1" d="M186.11,36.84h0C71.42,38,7.9,170.21,78.71,260.44L182,392a15.48,15.48,0,0,0,25-.82L301.48,253C364.57,160.8,297.82,35.74,186.11,36.84ZM189.38,249a81.2,81.2,0,1,1,81.2-81.2A81.19,81.19,0,0,1,189.38,249Z" transform="translate(-48.97 -36.46)"/><path class="cls-2" d="M195.05,36.84h0C80.36,38,16.84,170.21,87.64,260.44L190.89,392a15.47,15.47,0,0,0,24.94-.82L310.41,253C373.51,160.8,306.76,35.74,195.05,36.84ZM198.32,249a81.2,81.2,0,1,1,81.2-81.2A81.19,81.19,0,0,1,198.32,249Z" transform="translate(-48.97 -36.46)"/><path class="cls-3" d="M225.33,242.94c-.16-16.64-12.67-29.8-29.31-29.63-16.16.16-28.12,12.66-28.63,28.64,0,.15,0,.31,0,.46v25.85a7.29,7.29,0,0,0,7.27,7.27h0a7.29,7.29,0,0,0,7.27-7.27V242.41a2.35,2.35,0,0,0,0-.26,14.55,14.55,0,0,1,14.28-13.08h0A14.52,14.52,0,0,1,210.79,243v24.6a7.27,7.27,0,1,0,14.54,0l0-22.22C225.33,244.54,225.34,243.74,225.33,242.94Z" transform="translate(-48.97 -36.46)"/><path class="cls-4" d="M353.4,221.81a7.29,7.29,0,0,0-7.28-7.25h0a7.3,7.3,0,0,0-7.26,7.29l.06,25.85c0,.09,0,.17,0,.26a14.53,14.53,0,0,1-14.25,13.11h0A14.52,14.52,0,0,1,310,247.22L310,222.63a7.27,7.27,0,1,0-14.54,0l.1,22.23c0,.79-.05,1.58,0,2.38.2,16.64,12.74,29.77,29.38,29.57,16.16-.2,28.09-12.73,28.57-28.71,0-.15,0-.31,0-.47Z" transform="translate(-48.97 -36.46)"/><path class="cls-5" d="M224.56,169.49c-.16-16.79-12.79-30.08-29.58-29.91a29.16,29.16,0,0,0-15.22,4.34,11.33,11.33,0,0,0-12.94,18.61,32.45,32.45,0,0,0-.66,4.57c0,.22-.06.44-.08.67s0,.31,0,.47v26.09a7.37,7.37,0,0,0,7.34,7.34h0a7.36,7.36,0,0,0,7.34-7.34V168.64a14.66,14.66,0,0,1,14.4-13.15h0a14.67,14.67,0,0,1,14.75,14v24.83a7.34,7.34,0,1,0,14.67,0l0-22.44C224.55,171.1,224.57,170.3,224.56,169.49Z" transform="translate(-48.97 -36.46)"/><path class="cls-6" d="M276.93,214.51a9.94,9.94,0,0,0-7.49,3.42,22.62,22.62,0,0,0-12-3.42c-12.89,0-23.35,10.84-23.35,24.21s10.46,24.22,23.35,24.22a22.55,22.55,0,0,0,9.49-2.09v26.09a10,10,0,1,0,20,0V224.49A10,10,0,0,0,276.93,214.51Z" transform="translate(-48.97 -36.46)"/><path class="cls-7" d="M379.89,129.59a10.13,10.13,0,0,0-10.24-9.93h0a10.05,10.05,0,0,0-10.08,10l.21,26.09a23.2,23.2,0,0,0-9.67-2.05A23.88,23.88,0,0,0,326.53,178a24.12,24.12,0,0,0,24,24.12,23.28,23.28,0,0,0,12.16-3.48,10.26,10.26,0,0,0,7.65,3.39h0a10.06,10.06,0,0,0,10.08-10Z" transform="translate(-48.97 -36.46)"/><rect class="cls-8" x="315.99" y="178.51" width="14.38" height="59.83" rx="7.19" ry="7.19"/><path class="cls-9" d="M280.36,147.76a29.91,29.91,0,0,0-48,12.8,29.25,29.25,0,0,0-2.09,10.32c-.34,15.6,10.93,27.64,26,29.38a36.52,36.52,0,0,0,6,.59c1.47,0,2.76,0,3.9,0l13.58.19c4,.09,7.23-3.46,7.32-7.46h0a7.29,7.29,0,0,0-7.1-7.44L259.65,186c-7.22-.94-13.76-7.26-13.62-14.69h39.1a4.52,4.52,0,0,0,4.5-4.5h0A24.18,24.18,0,0,0,280.36,147.76Z" transform="translate(-48.97 -36.46)"/><path class="cls-10" d="M330.86,147.44h0a8.92,8.92,0,0,0-12-3.17l-8,4.42v-.29a7.17,7.17,0,0,0-7.15-7.14h-.82a7.16,7.16,0,0,0-7.14,7.14v45.52a7.16,7.16,0,0,0,7.14,7.14h.82a7.17,7.17,0,0,0,7.15-7.14V168a8.75,8.75,0,0,0,2-.81l14.56-8.06A8.54,8.54,0,0,0,330.86,147.44Z" transform="translate(-48.97 -36.46)"/><path class="cls-11" d="M220.26,242.94c-.16-16.64-12.67-29.8-29.31-29.63-16.16.16-28.12,12.66-28.63,28.64,0,.15,0,.31,0,.46v25.85a7.29,7.29,0,0,0,7.27,7.27h0a7.29,7.29,0,0,0,7.27-7.27V242.41a2.35,2.35,0,0,0,0-.26,14.54,14.54,0,0,1,14.28-13.08h0A14.52,14.52,0,0,1,205.72,243v24.6a7.27,7.27,0,1,0,14.54,0l0-22.22C220.25,244.54,220.27,243.74,220.26,242.94Z" transform="translate(-48.97 -36.46)"/><path class="cls-11" d="M348.33,221.81a7.3,7.3,0,0,0-7.29-7.25h0a7.3,7.3,0,0,0-7.25,7.29l.06,25.85a2.26,2.26,0,0,0,0,.26,14.53,14.53,0,0,1-14.25,13.11h0A14.52,14.52,0,0,1,305,247.22l-.06-24.59a7.27,7.27,0,1,0-14.54,0l.1,22.23c0,.79-.05,1.58,0,2.38.2,16.64,12.74,29.77,29.37,29.57,16.17-.2,28.1-12.73,28.57-28.71,0-.15,0-.31,0-.47Z" transform="translate(-48.97 -36.46)"/><path class="cls-11" d="M219.49,169.49c-.16-16.79-12.79-30.08-29.58-29.91a29.16,29.16,0,0,0-15.22,4.34,11.33,11.33,0,0,0-12.94,18.61,34,34,0,0,0-.67,4.57c0,.22-.06.44-.07.67s0,.31,0,.47v26.09a7.36,7.36,0,0,0,7.34,7.34h0a7.36,7.36,0,0,0,7.34-7.34v-25.7a14.66,14.66,0,0,1,14.4-13.14h0a14.67,14.67,0,0,1,14.75,14v24.83a7.34,7.34,0,1,0,14.67,0l0-22.44C219.48,171.1,219.5,170.3,219.49,169.49Z" transform="translate(-48.97 -36.46)"/><path class="cls-11" d="M271.86,214.51h0a9.94,9.94,0,0,0-7.49,3.42,22.62,22.62,0,0,0-12-3.42c-12.89,0-23.35,10.84-23.35,24.21s10.46,24.22,23.35,24.22a22.47,22.47,0,0,0,9.48-2.09v26.09a10,10,0,0,0,10,10h0a10,10,0,0,0,10-10V224.49A10,10,0,0,0,271.86,214.51Z" transform="translate(-48.97 -36.46)"/><path class="cls-11" d="M374.82,129.59a10.14,10.14,0,0,0-10.24-9.93h0a10.05,10.05,0,0,0-10.08,10l.21,26.09a23.2,23.2,0,0,0-9.67-2.05A23.88,23.88,0,0,0,321.46,178a24.12,24.12,0,0,0,24,24.12,23.22,23.22,0,0,0,12.15-3.48,10.3,10.3,0,0,0,7.66,3.39h0a10.06,10.06,0,0,0,10.08-10Z" transform="translate(-48.97 -36.46)"/><rect class="cls-11" x="310.92" y="178.51" width="14.38" height="59.83" rx="7.19" ry="7.19"/><path class="cls-11" d="M275.29,147.76a29.91,29.91,0,0,0-48,12.8,29,29,0,0,0-2.09,10.32c-.34,15.6,10.93,27.64,26.05,29.38a36.52,36.52,0,0,0,6,.59c1.47,0,2.76,0,3.9,0l13.58.19c4,.09,7.23-3.46,7.32-7.46h0a7.29,7.29,0,0,0-7.1-7.44L254.58,186c-7.22-.94-13.76-7.26-13.62-14.69h39.09a4.52,4.52,0,0,0,4.51-4.5h0A24.18,24.18,0,0,0,275.29,147.76Z" transform="translate(-48.97 -36.46)"/><path class="cls-11" d="M325.78,147.44h0a8.91,8.91,0,0,0-12-3.17l-8,4.42v-.29a7.16,7.16,0,0,0-7.14-7.14h-.82a7.16,7.16,0,0,0-7.14,7.14v45.52a7.16,7.16,0,0,0,7.14,7.14h.82a7.16,7.16,0,0,0,7.14-7.14V168a8.64,8.64,0,0,0,2-.81l14.56-8.06A8.52,8.52,0,0,0,325.78,147.44Z" transform="translate(-48.97 -36.46)"/></svg>